<svg xmlns="http://www.w3.org/2000/svg" width="1000" height="297" viewBox="0 0 1000 297" role="img" aria-label="Leave a Review on Google">
  <defs>
    <filter id="softShadow" x="-8%" y="-24%" width="116%" height="156%">
      <feDropShadow dx="0" dy="10" stdDeviation="10" flood-color="#031b3f" flood-opacity="0.35"/>
      <feDropShadow dx="0" dy="0" stdDeviation="8" flood-color="#2c78c4" flood-opacity="0.28"/>
    </filter>
    <linearGradient id="cream" x1="0" x2="1">
      <stop offset="0" stop-color="#fffdf7"/>
      <stop offset="0.5" stop-color="#fff8ec"/>
      <stop offset="1" stop-color="#fffdf7"/>
    </linearGradient>
    <style>
      .blue{fill:#0b4fa8}.line{fill:none;stroke:#0b4fa8;stroke-width:3.5;stroke-linecap:round;stroke-linejoin:round}.thin{fill:none;stroke:#0b4fa8;stroke-width:2.3;stroke-linecap:round;stroke-linejoin:round}.hand{font-family:'Trebuchet MS','Comic Sans MS',Arial,sans-serif}.roof{fill:#f26a23}.white{fill:#fffefa}.yellow{fill:#ffd342}.leaf{fill:#2b9d41}.tileA{fill:#0b4fa8}.tileB{fill:#1f91dc}.tileC{fill:#10235b}.tileD{fill:#fff}
    </style>
  </defs>

  <g filter="url(#softShadow)">
    <rect x="18" y="32" width="964" height="232" rx="112" fill="url(#cream)"/>
    <rect x="18" y="32" width="964" height="232" rx="112" fill="none" stroke="#fff" stroke-width="12"/>
    <rect x="25" y="39" width="950" height="218" rx="105" fill="none" stroke="#0b4fa8" stroke-width="5"/>
    <rect x="38" y="52" width="924" height="192" rx="92" fill="none" stroke="#10235b" stroke-width="2" opacity=".25"/>

    <g opacity=".9">
      <path class="thin" d="M65 87c31-28 58-34 88-27M68 116c22-13 45-19 71-18M69 145c18-11 35-14 53-10"/>
      <path class="thin" d="M62 84c-8 26-7 54 6 78M88 70c-5 16-4 30 3 44M117 62c-3 13 0 25 7 34"/>
      <path class="blue" d="M72 78c18-12 29-9 29-9s-7 13-26 17zM101 64c17-10 29-6 29-6s-8 13-26 15zM130 57c16-6 27-2 27-2s-9 11-26 12z"/>
      <path class="thin" d="M60 206c27 9 61 8 92 5M60 220c32 7 67 5 96 5M75 196c8-28 18-41 29-45 12 16 17 32 18 49M126 201c8-15 18-22 28-26 10 11 14 22 15 30M55 174c11-9 20-9 31 0"/>
    </g>

    <g transform="translate(202 132)">
      <circle r="66" fill="#fff" stroke="#0b4fa8" stroke-width="4"/>
      <text x="-36" y="26" font-family="Arial,sans-serif" font-size="88" font-weight="700" fill="#4285F4">G</text>
      <path d="M-25 -59A66 66 0 0 1 39 -53" fill="none" stroke="#EA4335" stroke-width="9" stroke-linecap="round"/>
      <path d="M-57 -27A66 66 0 0 1 -25 -59" fill="none" stroke="#FBBC05" stroke-width="9" stroke-linecap="round"/>
      <path d="M-51 39A66 66 0 0 1 -57 -27" fill="none" stroke="#34A853" stroke-width="9" stroke-linecap="round"/>
      <path d="M39 53A66 66 0 0 1 -51 39" fill="none" stroke="#4285F4" stroke-width="9" stroke-linecap="round"/>
    </g>

    <line x1="304" y1="72" x2="304" y2="226" stroke="#0b4fa8" stroke-width="3" opacity=".9"/>

    <g>
      <path class="thin" d="M465 70c18-18 37-18 54 0 18-18 38-18 56 0M519 51c-9 10-9 25 0 36M490 63c13 1 22 8 27 19M548 63c-13 1-22 8-27 19"/>
      <circle cx="519" cy="68" r="8" class="blue"/>
    </g>

    <text x="344" y="124" class="hand" font-size="46" font-weight="700" fill="#0b4fa8">Leave a Review</text>
    <text x="344" y="185" class="hand" font-size="46" font-weight="700" fill="#0b4fa8">on</text>
    <text x="452" y="185" font-family="Arial,sans-serif" font-size="54" font-weight="700" fill="#4285F4">G</text>
    <text x="494" y="185" font-family="Arial,sans-serif" font-size="54" font-weight="700" fill="#DB4437">o</text>
    <text x="531" y="185" font-family="Arial,sans-serif" font-size="54" font-weight="700" fill="#F4B400">o</text>
    <text x="570" y="185" font-family="Arial,sans-serif" font-size="54" font-weight="700" fill="#4285F4">g</text>
    <text x="610" y="185" font-family="Arial,sans-serif" font-size="54" font-weight="700" fill="#0F9D58">l</text>
    <text x="628" y="185" font-family="Arial,sans-serif" font-size="54" font-weight="700" fill="#DB4437">e</text>

    <g>
      <ellipse cx="500" cy="216" rx="17" ry="22" class="yellow" stroke="#0b4fa8" stroke-width="2" transform="rotate(-25 500 216)"/>
      <ellipse cx="528" cy="216" rx="17" ry="22" class="yellow" stroke="#0b4fa8" stroke-width="2" transform="rotate(25 528 216)"/>
      <path class="leaf" d="M507 191c-18-13-33-4-42 10 19 6 33 2 42-10zM522 191c16-14 32-9 43 5-17 8-32 7-43-5z" stroke="#0b4fa8" stroke-width="2"/>
    </g>

    <g transform="translate(165 222)">
      <rect width="625" height="36" fill="#fff"/>
      <g>
        <rect x="0" y="0" width="52" height="36" class="tileA"/><polygon points="0,0 52,0 26,18" class="tileD"/><polygon points="0,36 52,36 26,18" class="tileB"/>
        <rect x="52" y="0" width="52" height="36" class="tileB"/><polygon points="52,0 104,36 52,36" class="tileD"/><polygon points="104,0 104,36 52,0" class="tileC"/>
        <rect x="104" y="0" width="52" height="36" class="tileC"/><polygon points="104,0 156,0 156,36" class="tileD"/><polygon points="104,36 156,36 104,0" class="tileB"/>
        <rect x="156" y="0" width="52" height="36" class="tileA"/><polygon points="156,0 208,18 156,36" class="tileD"/><polygon points="208,0 208,36 182,18" class="tileB"/>
        <rect x="208" y="0" width="52" height="36" class="tileB"/><polygon points="208,0 260,0 234,36" class="tileD"/><polygon points="208,36 260,36 234,0" class="tileC"/>
        <rect x="260" y="0" width="52" height="36" class="tileA"/><polygon points="260,0 312,36 260,36" class="tileD"/><polygon points="312,0 312,36 260,0" class="tileB"/>
        <rect x="312" y="0" width="52" height="36" class="tileC"/><polygon points="312,0 364,0 338,18" class="tileD"/><polygon points="312,36 364,36 338,18" class="tileB"/>
        <rect x="364" y="0" width="52" height="36" class="tileA"/><polygon points="364,0 416,36 364,36" class="tileD"/><polygon points="416,0 416,36 364,0" class="tileB"/>
        <rect x="416" y="0" width="52" height="36" class="tileB"/><polygon points="416,0 468,0 442,36" class="tileD"/><polygon points="416,36 468,36 442,0" class="tileC"/>
        <rect x="468" y="0" width="52" height="36" class="tileA"/><polygon points="468,0 520,18 468,36" class="tileD"/><polygon points="520,0 520,36 494,18" class="tileB"/>
        <rect x="520" y="0" width="105" height="36" class="tileC"/><polygon points="520,0 625,36 520,36" class="tileD"/><polygon points="625,0 625,36 520,0" class="tileB"/>
      </g>
    </g>

    <g transform="translate(806 62)">
      <path d="M18 155c20-60 64-105 126-120 38 16 62 54 67 105-46 44-128 53-193 15z" fill="#fffdf7" opacity=".72"/>
      <path class="thin" d="M28 162c28-22 62-34 104-42M58 146c30-17 62-37 94-74M82 172c29-10 62-14 100-14" opacity=".65"/>
      <g stroke="#0b4fa8" stroke-width="3" stroke-linejoin="round">
        <g transform="translate(132 16)"><rect x="0" y="18" width="48" height="50" rx="5" class="white"/><path d="M-5 20c12-14 45-18 58 0z" class="roof"/><path class="thin" d="M24 33v22M13 44h22"/></g>
        <g transform="translate(86 45)"><rect x="0" y="18" width="54" height="55" rx="5" class="white"/><path d="M-5 20c13-15 50-19 64 0z" class="roof"/><path class="thin" d="M27 35v25M15 48h24"/></g>
        <g transform="translate(144 82)"><rect x="0" y="18" width="56" height="58" rx="5" class="white"/><path d="M-5 20c13-16 52-19 66 0z" class="roof"/><path class="thin" d="M28 35v27M15 49h26"/></g>
        <g transform="translate(58 102)"><rect x="0" y="18" width="58" height="56" rx="5" class="white"/><path d="M-5 20c13-16 54-19 68 0z" class="roof"/><path class="thin" d="M29 35v26M16 48h26"/></g>
        <g transform="translate(18 135)"><rect x="0" y="18" width="44" height="42" rx="5" class="white"/><path d="M-4 20c10-12 40-15 50 0z" class="roof"/><path class="thin" d="M22 31v19M12 40h19"/></g>
      </g>
      <g class="leaf" stroke="#0b4fa8" stroke-width="2">
        <circle cx="192" cy="157" r="8"/><circle cx="174" cy="166" r="8"/><circle cx="206" cy="172" r="8"/><circle cx="158" cy="150" r="7"/><circle cx="118" cy="72" r="6"/>
      </g>
    </g>
  </g>
</svg>
