<svg xmlns="http://www.w3.org/2000/svg" viewBox="0 0 900 300" width="900" height="300" role="img" aria-label="Book with TheFork">
  <defs>
    <filter id="softGlow" x="-10%" y="-25%" width="120%" height="150%">
      <feGaussianBlur in="SourceAlpha" stdDeviation="10" result="blur"/>
      <feOffset dy="3" result="offset"/>
      <feColorMatrix in="offset" type="matrix" values="0 0 0 0 0.05 0 0 0 0 0.35 0 0 0 0 0.75 0 0 0 0.35 0" result="shadow"/>
      <feMerge>
        <feMergeNode in="shadow"/>
        <feMergeNode in="SourceGraphic"/>
      </feMerge>
    </filter>
    <clipPath id="buttonClip">
      <rect x="25" y="25" width="850" height="250" rx="34" ry="34"/>
    </clipPath>
    <linearGradient id="ceramic" x1="0" y1="0" x2="1" y2="1">
      <stop offset="0" stop-color="#ffffff"/>
      <stop offset="0.5" stop-color="#fffefa"/>
      <stop offset="1" stop-color="#f5fbff"/>
    </linearGradient>
    <linearGradient id="blue1" x1="0" y1="0" x2="1" y2="1">
      <stop offset="0" stop-color="#2f91d0"/>
      <stop offset="1" stop-color="#0a2a66"/>
    </linearGradient>
    <style>
      .navy{fill:#0a2a66}.blue{fill:#1f6ab6}.sky{fill:#3497d4}.green{fill:#43a72d}.text{font-family:Arial,Helvetica,sans-serif}.title{font-size:45px;font-weight:800;letter-spacing:1px}.body{font-size:29px}.small{font-size:22px}.bold{font-weight:800}.tileLine{stroke:#ffffff;stroke-width:2.4;opacity:.95}.divider{stroke:#2b75bb;stroke-width:2;opacity:.75}
    </style>
  </defs>

  <rect width="900" height="300" fill="none"/>

  <g filter="url(#softGlow)">
    <rect x="25" y="25" width="850" height="250" rx="34" ry="34" fill="#ffffff"/>
    <g clip-path="url(#buttonClip)">
      <rect x="25" y="25" width="850" height="250" rx="34" ry="34" fill="url(#ceramic)"/>

      <!-- top tile border -->
      <g transform="translate(42 42)">
        <g>
          <rect width="54" height="54" fill="#fff"/><polygon points="0,0 54,0 27,27" class="sky"/><polygon points="0,0 0,54 27,27" class="navy"/><polygon points="54,54 54,0 27,27" class="blue"/><polygon points="0,54 54,54 27,27" fill="#ffffff"/><rect width="54" height="54" fill="none" class="tileLine"/>
        </g>
        <g transform="translate(54 0)"><rect width="54" height="54" fill="#fff"/><polygon points="0,0 54,0 54,54" class="navy"/><polygon points="0,0 0,54 54,54" class="blue"/><polygon points="0,54 54,54 27,27" fill="#ffffff"/><rect width="54" height="54" fill="none" class="tileLine"/></g>
        <g transform="translate(108 0)"><rect width="54" height="54" fill="#fff"/><polygon points="0,0 54,54 0,54" class="sky"/><polygon points="54,0 54,54 0,0" fill="#ffffff"/><rect width="54" height="54" fill="none" class="tileLine"/></g>
        <g transform="translate(162 0)"><rect width="54" height="54" fill="#fff"/><polygon points="0,0 54,0 0,54" class="blue"/><polygon points="54,0 54,54 0,54" class="navy"/><rect width="54" height="54" fill="none" class="tileLine"/></g>
        <g transform="translate(216 0)"><rect width="54" height="54" class="navy"/><polygon points="0,0 54,12 54,24 0,12" fill="#ffffff"/><polygon points="0,24 54,36 54,48 0,36" fill="#ffffff"/><rect width="54" height="54" fill="none" class="tileLine"/></g>
        <g transform="translate(270 0)"><rect width="54" height="54" fill="#fff"/><polygon points="0,0 54,0 27,27" class="blue"/><polygon points="0,0 0,54 27,27" class="sky"/><polygon points="54,54 54,0 27,27" class="navy"/><polygon points="0,54 54,54 27,27" fill="#ffffff"/><rect width="54" height="54" fill="none" class="tileLine"/></g>
        <g transform="translate(324 0)"><rect width="54" height="54" fill="#fff"/><polygon points="0,0 54,0 54,54" class="sky"/><polygon points="0,0 0,54 54,54" class="navy"/><rect width="54" height="54" fill="none" class="tileLine"/></g>
        <g transform="translate(378 0)"><rect width="54" height="54" class="navy"/><polygon points="0,0 54,12 54,24 0,12" fill="#ffffff"/><polygon points="0,24 54,36 54,48 0,36" fill="#ffffff"/><rect width="54" height="54" fill="none" class="tileLine"/></g>
        <g transform="translate(432 0)"><rect width="54" height="54" fill="#fff"/><polygon points="0,0 54,0 0,54" class="blue"/><polygon points="54,0 54,54 0,54" class="sky"/><rect width="54" height="54" fill="none" class="tileLine"/></g>
        <g transform="translate(486 0)"><rect width="54" height="54" fill="#fff"/><polygon points="0,0 54,0 27,27" class="sky"/><polygon points="0,0 0,54 27,27" class="navy"/><polygon points="54,54 54,0 27,27" class="blue"/><rect width="54" height="54" fill="none" class="tileLine"/></g>
        <g transform="translate(540 0)"><rect width="54" height="54" fill="#fff"/><polygon points="0,0 54,54 0,54" class="navy"/><polygon points="54,0 54,54 0,0" class="blue"/><rect width="54" height="54" fill="none" class="tileLine"/></g>
        <g transform="translate(594 0)"><rect width="54" height="54" class="navy"/><polygon points="0,0 54,12 54,24 0,12" fill="#ffffff"/><polygon points="0,24 54,36 54,48 0,36" fill="#ffffff"/><rect width="54" height="54" fill="none" class="tileLine"/></g>
        <g transform="translate(648 0)"><rect width="54" height="54" fill="#fff"/><polygon points="0,0 54,0 0,54" class="sky"/><polygon points="54,0 54,54 0,54" class="navy"/><rect width="54" height="54" fill="none" class="tileLine"/></g>
        <g transform="translate(702 0)"><rect width="54" height="54" fill="#fff"/><polygon points="0,0 54,0 27,27" class="blue"/><polygon points="0,0 0,54 27,27" class="navy"/><polygon points="54,54 54,0 27,27" class="sky"/><rect width="54" height="54" fill="none" class="tileLine"/></g>
        <g transform="translate(756 0)"><rect width="54" height="54" fill="#fff"/><polygon points="0,0 54,0 54,54" class="navy"/><polygon points="0,0 0,54 54,54" class="blue"/><rect width="54" height="54" fill="none" class="tileLine"/></g>
      </g>

      <!-- side borders as simple tile strips -->
      <g transform="translate(42 96)">
        <rect width="54" height="54" fill="#fff"/><polygon points="0,0 54,0 27,27" class="blue"/><polygon points="0,54 54,54 27,27" class="sky"/><rect width="54" height="54" fill="none" class="tileLine"/>
        <g transform="translate(0 54)"><rect width="54" height="54" class="navy"/><polygon points="0,0 54,12 54,24 0,12" fill="#ffffff"/><polygon points="0,24 54,36 54,48 0,36" fill="#ffffff"/><rect width="54" height="54" fill="none" class="tileLine"/></g>
        <g transform="translate(0 108)"><rect width="54" height="54" fill="#fff"/><polygon points="0,0 54,0 0,54" class="sky"/><polygon points="54,0 54,54 0,54" class="navy"/><rect width="54" height="54" fill="none" class="tileLine"/></g>
      </g>
      <g transform="translate(804 96)">
        <rect width="54" height="54" fill="#fff"/><polygon points="0,0 54,0 27,27" class="sky"/><polygon points="0,54 54,54 27,27" class="blue"/><rect width="54" height="54" fill="none" class="tileLine"/>
        <g transform="translate(0 54)"><rect width="54" height="54" fill="#fff"/><polygon points="0,0 54,54 0,54" class="navy"/><polygon points="54,0 54,54 0,0" class="blue"/><rect width="54" height="54" fill="none" class="tileLine"/></g>
        <g transform="translate(0 108)"><rect width="54" height="54" class="navy"/><polygon points="0,0 54,12 54,24 0,12" fill="#ffffff"/><polygon points="0,24 54,36 54,48 0,36" fill="#ffffff"/><rect width="54" height="54" fill="none" class="tileLine"/></g>
      </g>

      <!-- bottom tile border -->
      <g transform="translate(96 204)">
        <g><rect width="54" height="54" fill="#fff"/><polygon points="0,0 54,0 27,27" class="navy"/><polygon points="0,54 54,54 27,27" class="blue"/><rect width="54" height="54" fill="none" class="tileLine"/></g>
        <g transform="translate(54 0)"><rect width="54" height="54" fill="#fff"/><polygon points="0,0 54,0 54,54" class="sky"/><polygon points="0,0 0,54 54,54" class="navy"/><rect width="54" height="54" fill="none" class="tileLine"/></g>
        <g transform="translate(108 0)"><rect width="54" height="54" class="navy"/><polygon points="0,0 54,12 54,24 0,12" fill="#ffffff"/><polygon points="0,24 54,36 54,48 0,36" fill="#ffffff"/><rect width="54" height="54" fill="none" class="tileLine"/></g>
        <g transform="translate(162 0)"><rect width="54" height="54" fill="#fff"/><polygon points="0,0 54,54 0,54" class="sky"/><polygon points="54,0 54,54 0,0" fill="#ffffff"/><rect width="54" height="54" fill="none" class="tileLine"/></g>
        <g transform="translate(216 0)"><rect width="54" height="54" fill="#fff"/><polygon points="0,0 54,0 0,54" class="blue"/><polygon points="54,0 54,54 0,54" class="navy"/><rect width="54" height="54" fill="none" class="tileLine"/></g>
        <g transform="translate(270 0)"><rect width="54" height="54" fill="#fff"/><polygon points="0,0 54,0 27,27" class="sky"/><polygon points="0,54 54,54 27,27" class="navy"/><rect width="54" height="54" fill="none" class="tileLine"/></g>
        <g transform="translate(324 0)"><rect width="54" height="54" class="navy"/><polygon points="0,0 54,12 54,24 0,12" fill="#ffffff"/><polygon points="0,24 54,36 54,48 0,36" fill="#ffffff"/><rect width="54" height="54" fill="none" class="tileLine"/></g>
        <g transform="translate(378 0)"><rect width="54" height="54" fill="#fff"/><polygon points="0,0 54,0 0,54" class="sky"/><polygon points="54,0 54,54 0,54" class="navy"/><rect width="54" height="54" fill="none" class="tileLine"/></g>
        <g transform="translate(432 0)"><rect width="54" height="54" fill="#fff"/><polygon points="0,0 54,0 27,27" class="blue"/><polygon points="0,54 54,54 27,27" class="sky"/><rect width="54" height="54" fill="none" class="tileLine"/></g>
        <g transform="translate(486 0)"><rect width="54" height="54" fill="#fff"/><polygon points="0,0 54,54 0,54" class="navy"/><polygon points="54,0 54,54 0,0" class="blue"/><rect width="54" height="54" fill="none" class="tileLine"/></g>
        <g transform="translate(540 0)"><rect width="54" height="54" class="navy"/><polygon points="0,0 54,12 54,24 0,12" fill="#ffffff"/><polygon points="0,24 54,36 54,48 0,36" fill="#ffffff"/><rect width="54" height="54" fill="none" class="tileLine"/></g>
        <g transform="translate(594 0)"><rect width="54" height="54" fill="#fff"/><polygon points="0,0 54,0 0,54" class="blue"/><polygon points="54,0 54,54 0,54" class="sky"/><rect width="54" height="54" fill="none" class="tileLine"/></g>
      </g>
    </g>

    <rect x="25" y="25" width="850" height="250" rx="34" ry="34" fill="none" stroke="#ffffff" stroke-width="12" opacity=".95"/>
    <rect x="36" y="36" width="828" height="228" rx="25" ry="25" fill="none" stroke="#0a4fa2" stroke-width="4"/>
    <rect x="125" y="78" width="650" height="144" rx="8" ry="8" fill="rgba(255,255,255,.92)" stroke="#1e66b1" stroke-width="2"/>

    <!-- TheFork simplified mark -->
    <g transform="translate(187 79)">
      <circle cx="70" cy="61" r="50" fill="#49a82f"/>
      <rect x="66" y="18" width="9" height="98" rx="4.5" fill="#ffffff"/>
      <rect x="44" y="12" width="7" height="38" rx="3.5" fill="#ffffff"/>
      <rect x="59" y="10" width="7" height="40" rx="3.5" fill="#ffffff"/>
      <rect x="74" y="10" width="7" height="40" rx="3.5" fill="#ffffff"/>
      <rect x="89" y="12" width="7" height="38" rx="3.5" fill="#ffffff"/>
      <path d="M68 112 C30 96 30 30 62 18 C51 50 52 86 68 112Z" fill="#ffffff" opacity=".95"/>
      <text x="70" y="152" text-anchor="middle" class="text bold" font-size="54" fill="#1f7f22">thefork</text>
      <text x="70" y="178" text-anchor="middle" class="text small" fill="#1b1b1b">a Tripadvisor company</text>
    </g>

    <line x1="392" y1="72" x2="392" y2="228" class="divider"/>
    <text x="607" y="107" text-anchor="middle" class="text title navy">BOOK WITH THEFORK</text>
    <path d="M578 133 C588 125, 598 141, 608 133 S628 141, 638 133" fill="none" stroke="#2389d2" stroke-width="5" stroke-linecap="round"/>
    <text x="607" y="166" text-anchor="middle" class="text body navy">Did you enjoy your visit?</text>
    <text x="607" y="197" text-anchor="middle" class="text body navy">Book your next table with us</text>
    <text x="607" y="229" text-anchor="middle" class="text body navy">on <tspan fill="#2f9d31">TheFork</tspan> and get <tspan class="bold">20% off.</tspan></text>
  </g>
</svg>